<?xml version="1.0" encoding="UTF-8"?>
<svg xmlns="http://www.w3.org/2000/svg" xmlns:xlink="http://www.w3.org/1999/xlink" width="24px" height="24px" viewBox="0 0 24 24" version="1.1">
<g id="surface1">
<path style="fill:none;stroke-width:2.688;stroke-linecap:round;stroke-linejoin:round;stroke:rgb(11.372549%,41.960784%,95.294118%);stroke-opacity:1;stroke-miterlimit:4;" d="M 24 2.5 C 13.453125 2.492188 4.453125 10.140625 2.765625 20.554688 C 1.078125 30.96875 7.1875 41.070312 17.203125 44.398438 C 18.28125 44.601562 18.671875 43.9375 18.671875 43.398438 C 18.671875 42.859375 18.671875 41.539062 18.671875 39.75 C 12.671875 41.046875 11.429688 36.867188 11.429688 36.867188 C 11.03125 35.546875 10.171875 34.414062 9 33.679688 C 7.046875 32.351562 9.148438 32.367188 9.148438 32.367188 C 10.53125 32.5625 11.742188 33.382812 12.4375 34.59375 C 14.359375 37.882812 17.4375 36.929688 18.703125 36.382812 C 18.796875 35.289062 19.289062 34.265625 20.070312 33.5 C 15.289062 32.960938 10.273438 31.117188 10.273438 22.882812 C 10.242188 20.742188 11.03125 18.671875 12.492188 17.109375 C 11.828125 15.257812 11.90625 13.21875 12.703125 11.421875 C 12.703125 11.421875 14.5 10.84375 18.609375 13.617188 C 22.132812 12.65625 25.84375 12.65625 29.367188 13.617188 C 33.476562 10.84375 35.28125 11.421875 35.28125 11.421875 C 36.070312 13.21875 36.148438 15.257812 35.492188 17.109375 C 36.945312 18.679688 37.734375 20.742188 37.703125 22.882812 C 37.703125 31.140625 32.703125 32.953125 27.890625 33.492188 C 28.9375 34.546875 29.46875 36.007812 29.351562 37.492188 C 29.351562 40.359375 29.351562 42.679688 29.351562 43.390625 C 29.351562 44.101562 29.742188 44.632812 30.828125 44.390625 C 40.828125 41.046875 46.929688 30.945312 45.234375 20.539062 C 43.53125 10.132812 34.539062 2.492188 24 2.5 " transform="matrix(0.5,0,0,0.5,0,0)"/>
<path style="fill:none;stroke-width:1;stroke-linecap:round;stroke-linejoin:round;stroke:rgb(11.372549%,41.960784%,95.294118%);stroke-opacity:1;stroke-miterlimit:4;" d="M 24 2.5 C 13.453125 2.492188 4.453125 10.140625 2.765625 20.554688 C 1.078125 30.96875 7.1875 41.070312 17.203125 44.398438 C 18.28125 44.601562 18.671875 43.9375 18.671875 43.398438 C 18.671875 42.859375 18.671875 41.539062 18.671875 39.75 C 12.671875 41.046875 11.429688 36.867188 11.429688 36.867188 C 11.03125 35.546875 10.171875 34.414062 9 33.679688 C 7.046875 32.351562 9.148438 32.367188 9.148438 32.367188 C 10.53125 32.5625 11.742188 33.382812 12.4375 34.59375 C 14.359375 37.882812 17.4375 36.929688 18.703125 36.382812 C 18.796875 35.289062 19.289062 34.265625 20.070312 33.5 C 15.289062 32.960938 10.273438 31.117188 10.273438 22.882812 C 10.242188 20.742188 11.03125 18.671875 12.492188 17.109375 C 11.828125 15.257812 11.90625 13.21875 12.703125 11.421875 C 12.703125 11.421875 14.5 10.84375 18.609375 13.617188 C 22.132812 12.65625 25.84375 12.65625 29.367188 13.617188 C 33.476562 10.84375 35.28125 11.421875 35.28125 11.421875 C 36.070312 13.21875 36.148438 15.257812 35.492188 17.109375 C 36.945312 18.679688 37.734375 20.742188 37.703125 22.882812 C 37.703125 31.140625 32.703125 32.953125 27.890625 33.492188 C 28.9375 34.546875 29.46875 36.007812 29.351562 37.492188 C 29.351562 40.359375 29.351562 42.679688 29.351562 43.390625 C 29.351562 44.101562 29.742188 44.632812 30.828125 44.390625 C 40.828125 41.046875 46.929688 30.945312 45.234375 20.539062 C 43.53125 10.132812 34.539062 2.492188 24 2.5 " transform="matrix(0.5,0,0,0.5,0,0)"/>
</g>
</svg>
